<svg width="29" height="29" viewBox="0 0 29 29" fill="none" xmlns="http://www.w3.org/2000/svg">
<path d="M16.6093 20.2573C16.8847 20.3838 17.1949 20.4127 17.4889 20.3392C17.7829 20.2658 18.0431 20.0944 18.2267 19.8533L18.7 19.2333C18.9484 18.9021 19.2705 18.6333 19.6408 18.4482C20.011 18.263 20.4193 18.1666 20.8333 18.1666H24.8333C25.5406 18.1666 26.2189 18.4476 26.719 18.9477C27.219 19.4478 27.5 20.1261 27.5 20.8333V24.8333C27.5 25.5406 27.219 26.2188 26.719 26.7189C26.2189 27.219 25.5406 27.5 24.8333 27.5C18.4681 27.5 12.3636 24.9714 7.86277 20.4705C3.3619 15.9697 0.833334 9.86517 0.833334 3.49998C0.833334 2.79274 1.11429 2.11446 1.61438 1.61436C2.11448 1.11426 2.79276 0.833313 3.5 0.833313H7.5C8.20724 0.833313 8.88552 1.11426 9.38562 1.61436C9.88571 2.11446 10.1667 2.79274 10.1667 3.49998V7.49998C10.1667 7.91397 10.0703 8.32227 9.88514 8.69255C9.7 9.06283 9.43119 9.38492 9.1 9.63331L8.476 10.1013C8.23122 10.2882 8.05869 10.5541 7.98772 10.8538C7.91675 11.1535 7.95171 11.4685 8.08667 11.7453C9.90891 15.4465 12.9059 18.4397 16.6093 20.2573Z" stroke="white" stroke-width="1.66667" stroke-linecap="round" stroke-linejoin="round"/>
</svg>
